<svg xmlns="http://www.w3.org/2000/svg" viewBox="0 0 64 64" role="img" aria-label="Mahar Bote favicon">
  <defs>
    <radialGradient id="sky" cx="31%" cy="24%" r="76%">
      <stop offset="0" stop-color="#2a2038"/>
      <stop offset="0.58" stop-color="#14111f"/>
      <stop offset="1" stop-color="#0d0c14"/>
    </radialGradient>
    <linearGradient id="gold" x1="12" y1="8" x2="54" y2="58">
      <stop offset="0" stop-color="#f0d080"/>
      <stop offset="0.45" stop-color="#c9a86c"/>
      <stop offset="1" stop-color="#c07a42"/>
    </linearGradient>
    <filter id="glow" x="-35%" y="-35%" width="170%" height="170%">
      <feGaussianBlur stdDeviation="1.7" result="blur"/>
      <feMerge>
        <feMergeNode in="blur"/>
        <feMergeNode in="SourceGraphic"/>
      </feMerge>
    </filter>
  </defs>

  <circle cx="32" cy="32" r="30" fill="url(#sky)"/>
  <circle cx="32" cy="32" r="28" fill="none" stroke="#c9a86c" stroke-opacity="0.32" stroke-width="2"/>

  <g fill="none" stroke="url(#gold)" stroke-linecap="round" stroke-linejoin="round" filter="url(#glow)">
    <path d="M32 12 45 20.5 49 36 39 49H25L15 36 19 20.5Z" stroke-width="3.2"/>
    <path d="M19 20.5 39 49M45 20.5 25 49M15 36h34M32 12v40" stroke-width="1.8" opacity="0.78"/>
  </g>

  <g fill="#f0d080">
    <circle cx="32" cy="32" r="4.4"/>
    <path d="M51 10.5 52.6 14.8 57 16.5 52.6 18.2 51 22.5 49.4 18.2 45 16.5 49.4 14.8Z"/>
    <circle cx="14" cy="45" r="1.6" opacity="0.8"/>
    <circle cx="21" cy="12" r="1.2" opacity="0.65"/>
  </g>
</svg>
